<svg version="1.1" id="Layer_1" xmlns="http://www.w3.org/2000/svg" xmlns:xlink="http://www.w3.org/1999/xlink" x="0px" y="0px"
	 width="100%" viewBox="0 0 781 781" enable-background="new 0 0 781 781" xml:space="preserve">
<path fill="#FCB215" opacity="1.000000" stroke="none" 
	d="
M1.000000,330.000000 
	C1.000000,315.979095 1.000000,301.958221 1.355965,287.246094 
	C3.394663,266.680084 7.757370,247.442947 14.923616,228.797821 
	C28.272741,194.066071 48.607632,164.287186 76.673622,139.732666 
	C93.992874,124.580322 112.974998,112.243568 134.035080,102.929214 
	C160.481277,91.232697 188.112061,85.042686 216.964737,83.960609 
	C216.983917,83.986000 217.021957,84.036995 216.848358,84.323746 
	C215.491943,86.215851 214.314819,87.825417 213.125534,89.425957 
	C184.542068,127.893463 168.448685,170.715851 167.766769,219.251511 
	C151.083847,232.131241 139.515198,247.798477 136.509445,269.074432 
	C103.793785,283.112579 76.564766,303.914154 53.678154,330.655365 
	C38.817638,348.018677 27.151016,367.268524 18.402857,388.311859 
	C17.602432,390.237274 17.337704,393.020721 18.109585,394.868866 
	C29.133274,421.262939 44.722004,444.710419 64.706505,465.151520 
	C86.509293,487.452515 111.884987,504.635101 140.847214,516.204102 
	C150.209167,519.943787 160.162842,522.202209 169.879303,525.356445 
	C169.912781,525.574707 169.982910,526.012329 169.903671,526.412598 
	C166.939362,545.295166 166.911591,563.784119 168.846573,582.393555 
	C172.589188,618.387268 184.601776,651.327393 204.345795,681.535828 
	C208.159088,687.370178 212.157242,693.083679 215.603119,698.909058 
	C200.356354,699.419067 185.959030,696.682556 171.715759,693.280212 
	C149.726898,688.027588 129.031067,679.476013 109.575935,667.900024 
	C86.901260,654.408447 67.387100,637.188660 50.665184,616.949585 
	C36.486210,599.788391 25.339500,580.648010 16.981552,559.948730 
	C10.948867,545.008179 6.305855,529.687805 3.946312,513.706299 
	C3.120708,508.114410 1.990891,502.567474 0.999998,497.000000 
	C1.000000,482.645782 1.000000,468.291534 1.355823,453.246338 
	C2.139945,448.802704 2.165972,444.950378 3.066516,441.314667 
	C6.870749,425.956024 10.989967,410.675568 14.839997,395.327881 
	C15.357078,393.266602 15.482668,390.861481 14.964473,388.825592 
	C11.380534,374.745087 7.442670,360.754089 3.913553,346.660461 
	C2.547679,341.205811 1.948478,335.559174 1.000000,330.000000 
z"/>
<path fill="#FCB215" opacity="1.000000" stroke="none" 
	d="
M782.000000,500.531342 
	C780.680298,507.831116 779.367310,514.663513 778.039673,521.493103 
	C772.905396,547.903442 762.622009,572.268433 748.402527,594.985962 
	C738.848816,610.249268 727.757568,624.396606 714.645386,636.760742 
	C691.683350,658.412720 665.806885,675.758850 635.725342,685.766968 
	C620.422241,690.858215 604.532166,694.319092 588.739380,697.741211 
	C582.041870,699.192444 574.912598,698.651428 567.497681,699.015137 
	C567.015747,699.014343 566.975220,698.961548 567.125305,698.657410 
	C568.116882,697.120239 568.909851,695.850769 569.806824,694.659546 
	C600.333496,654.118958 615.948914,608.510071 615.898071,557.731262 
	C615.887451,547.134583 614.605530,536.539307 613.956116,525.716309 
	C614.002747,525.489319 614.070557,525.030762 614.473450,525.022583 
	C616.019409,524.817139 617.189392,524.716858 618.301514,524.407959 
	C635.509521,519.627869 651.999023,513.128174 667.554260,504.259430 
	C704.363647,483.272766 733.453735,454.592285 754.173645,417.576263 
	C758.706970,409.477478 762.782959,401.122772 767.372437,393.092651 
	C771.122498,404.877502 774.810791,416.391235 777.925171,428.058136 
	C779.755005,434.912903 780.672241,442.011230 782.000000,449.000000 
	C782.000000,466.020905 782.000000,483.041779 782.000000,500.531342 
z"/>
<path fill="#FCB215" opacity="1.000000" stroke="none" 
	d="
M566.952087,84.153511 
	C577.265503,85.130806 587.690979,85.458641 597.869934,87.215317 
	C621.963318,91.373360 645.076843,99.024010 666.228088,111.291901 
	C679.233215,118.835007 691.554138,127.765617 703.369995,137.101349 
	C719.918335,150.176270 733.547424,166.125641 745.330872,183.653244 
	C761.845947,208.219284 772.628540,235.164230 778.829407,263.989349 
	C780.138672,270.075470 780.496155,276.366364 781.646118,282.781433 
	C782.000000,299.687561 782.000000,316.375122 781.646118,333.749817 
	C779.186035,353.989258 774.800903,372.969818 766.821228,390.862671 
	C765.740540,388.988922 764.818481,387.404266 764.095764,385.733307 
	C749.967346,353.066864 729.085938,325.391663 701.827637,302.642731 
	C677.094788,282.001465 649.086853,267.346252 617.965515,258.819885 
	C614.759827,257.941650 613.627014,256.212311 614.088074,253.035980 
	C616.827393,234.163788 616.503052,215.318161 614.099060,196.410629 
	C610.003967,164.203323 599.414734,134.358643 582.216980,106.873070 
	C577.380005,99.142639 572.053833,91.718269 566.952087,84.153511 
z"/>
<path fill="#FCB215" opacity="1.000000" stroke="none" 
	d="
M413.531342,1.000000 
	C419.733276,1.995139 425.580658,2.565069 431.178009,4.066846 
	C446.643738,8.216338 462.347565,11.829951 477.320892,17.374123 
	C496.015686,24.296261 513.058350,34.687645 528.857422,46.959244 
	C542.608215,57.639889 555.270935,69.424393 565.501465,83.667725 
	C496.633057,83.113350 439.045654,108.214912 391.518524,157.935379 
	C344.037048,107.402512 285.870209,82.985313 217.021957,84.036995 
	C217.021957,84.036995 216.983917,83.986000 216.964737,83.960609 
	C237.830521,57.596848 263.655548,37.366440 293.788696,22.733633 
	C314.510498,12.670999 336.281677,5.671057 359.287415,2.969423 
	C362.711914,2.567276 366.132538,2.131937 369.777466,1.355977 
	C384.354218,1.000000 398.708466,1.000000 413.531342,1.000000 
z"/>
<path fill="#FCB215" opacity="1.000000" stroke="none" 
	d="
M567.036255,699.040588 
	C549.799988,719.774231 530.153931,737.812073 506.844177,751.489502 
	C483.741821,765.045105 459.166595,774.903992 432.522278,779.045471 
	C427.820984,779.776245 423.125671,780.545654 418.213806,781.648621 
	C400.979095,782.000000 383.958221,782.000000 366.468658,782.000000 
	C358.846191,780.667053 351.533905,779.885803 344.571747,777.885742 
	C330.307129,773.787903 315.966003,769.720520 302.142517,764.381653 
	C284.490753,757.564209 268.485138,747.458496 253.620972,735.780762 
	C240.107956,725.164551 227.506561,713.512756 217.487915,699.329346 
	C233.042648,698.011169 248.439301,698.079346 263.473816,695.779846 
	C297.431519,690.585938 328.501343,677.499207 355.932404,656.811951 
	C368.334930,647.458557 379.353516,636.270020 391.335571,625.998901 
	C395.795898,629.910095 399.972961,633.681824 404.036041,637.572571 
	C418.648285,651.565125 434.881256,663.327759 452.714447,672.851929 
	C488.421234,691.921875 526.515869,700.640625 566.975220,698.961548 
	C566.975220,698.961548 567.015747,699.014343 567.036255,699.040588 
z"/>
<path fill="#F68A1F" opacity="1.000000" stroke="none" 
	d="
M766.821228,390.862671 
	C767.059937,391.506195 767.047241,391.900787 767.052002,392.590668 
	C762.782959,401.122772 758.706970,409.477478 754.173645,417.576263 
	C733.453735,454.592285 704.363647,483.272766 667.554260,504.259430 
	C651.999023,513.128174 635.509521,519.627869 618.301514,524.407959 
	C617.189392,524.716858 616.019409,524.817139 614.236572,524.710266 
	C612.226501,517.916077 611.307861,511.289215 609.391174,504.964813 
	C605.491272,492.096283 601.052612,479.391083 596.878296,466.275635 
	C604.091003,453.821136 606.642944,440.665924 603.837158,427.009521 
	C601.907349,417.617035 598.556152,408.475647 595.348389,399.395813 
	C589.702209,383.413666 583.679688,367.564453 577.891296,351.262299 
	C580.251953,346.834503 582.431091,342.740204 584.837402,338.784027 
	C599.115601,315.309082 607.906799,289.828674 612.780884,262.893402 
	C613.404419,259.447601 612.765808,257.239960 608.801941,256.399506 
	C581.904968,250.696640 554.873047,248.896027 527.325195,252.927490 
	C523.898987,248.047409 520.853882,243.276352 517.547241,238.693985 
	C503.068359,218.628738 483.829926,207.748978 458.667328,207.882751 
	C448.440857,207.937119 439.073578,210.993942 429.418457,214.244171 
	C423.879456,204.936752 419.052399,195.628784 413.313507,186.921814 
	C406.966797,177.292770 399.785278,168.213959 392.563934,158.344223 
	C390.083344,160.710114 388.265076,162.120575 386.839722,163.854111 
	C373.375214,180.229828 362.046326,197.978973 353.427795,217.357010 
	C350.820831,223.218613 349.177277,229.508698 346.888916,235.871796 
	C344.686157,237.109421 342.688507,238.909988 340.687378,238.913910 
	C325.213287,238.944214 311.323853,244.092651 298.134430,251.574493 
	C293.564606,254.166733 289.235199,257.182831 284.620117,260.117126 
	C275.499176,249.388840 266.603546,238.843140 257.618225,228.374435 
	C240.536346,208.472504 218.935608,201.071304 193.601303,207.266418 
	C184.632980,209.459488 176.477600,214.976944 167.951080,218.976715 
	C168.448685,170.715851 184.542068,127.893463 213.125534,89.425957 
	C214.314819,87.825417 215.491943,86.215851 216.848358,84.323746 
	C285.870209,82.985313 344.037048,107.402512 391.518524,157.935379 
	C439.045654,108.214912 496.633057,83.113350 565.654907,83.976883 
	C566.132629,83.969170 566.552673,84.018959 566.752380,84.086235 
	C572.053833,91.718269 577.380005,99.142639 582.216980,106.873070 
	C599.414734,134.358643 610.003967,164.203323 614.099060,196.410629 
	C616.503052,215.318161 616.827393,234.163788 614.088074,253.035980 
	C613.627014,256.212311 614.759827,257.941650 617.965515,258.819885 
	C649.086853,267.346252 677.094788,282.001465 701.827637,302.642731 
	C729.085938,325.391663 749.967346,353.066864 764.095764,385.733307 
	C764.818481,387.404266 765.740540,388.988922 766.821228,390.862671 
z"/>
<path fill="#FFFEFD" opacity="1.000000" stroke="none" 
	d="
M429.728363,214.508652 
	C439.073578,210.993942 448.440857,207.937119 458.667328,207.882751 
	C483.829926,207.748978 503.068359,218.628738 517.547241,238.693985 
	C520.853882,243.276352 523.898987,248.047409 527.441772,253.266556 
	C538.336243,272.830139 549.242004,291.657532 559.236084,310.957062 
	C566.085693,324.184479 571.666687,338.068848 577.814758,351.659576 
	C583.679688,367.564453 589.702209,383.413666 595.348389,399.395813 
	C598.556152,408.475647 601.907349,417.617035 603.837158,427.009521 
	C606.642944,440.665924 604.091003,453.821136 596.613525,466.494446 
	C589.944092,477.312012 580.504761,484.505432 571.457336,492.104767 
	C556.555420,504.621490 541.708313,517.203369 526.520020,529.875244 
	C510.115479,543.445862 494.219055,557.136047 477.859222,570.248108 
	C470.132324,576.441101 461.929138,582.304871 453.201996,586.918640 
	C441.939148,592.872803 429.385498,592.208130 416.719238,590.711487 
	C411.122681,589.096741 405.808960,587.783813 400.541962,586.304321 
	C386.019470,582.225037 371.516571,578.076050 356.708984,573.729187 
	C354.677277,572.943237 352.941132,572.386902 351.207916,571.821655 
	C311.494751,558.869324 271.781952,545.916077 231.833130,532.718628 
	C204.352707,515.566711 188.555725,492.374573 191.186859,459.035706 
	C191.103058,459.052032 191.140335,459.218628 191.350784,459.012268 
	C191.615463,458.231598 191.669693,457.657349 191.855820,456.702332 
	C196.516586,434.990814 209.172348,419.678955 227.988968,408.816589 
	C208.572037,385.401337 189.552811,362.457123 170.522461,339.522156 
	C165.310089,333.240295 160.276520,326.793365 154.791824,320.757568 
	C141.397659,306.017517 135.470871,288.802429 136.852524,268.997803 
	C139.515198,247.798477 151.083847,232.131241 167.766769,219.251495 
	C176.477600,214.976944 184.632980,209.459488 193.601303,207.266418 
	C218.935608,201.071304 240.536346,208.472504 257.618225,228.374435 
	C266.603546,238.843140 275.499176,249.388840 284.620117,260.117126 
	C289.235199,257.182831 293.564606,254.166733 298.134430,251.574493 
	C311.323853,244.092651 325.213287,238.944214 340.687378,238.913910 
	C342.688507,238.909988 344.686157,237.109421 347.213562,235.708038 
	C368.353516,219.296036 390.990204,212.848969 416.685974,220.506104 
	C417.775269,220.830688 419.305573,220.585449 420.332031,220.042007 
	C423.541107,218.342941 426.606995,216.373383 429.728363,214.508652 
M439.024811,286.909698 
	C442.324463,293.004730 445.624084,299.099792 449.039581,305.872101 
	C451.291138,309.506256 453.638824,313.086517 455.729065,316.811188 
	C456.275360,317.784607 456.558105,319.786713 456.012756,320.291992 
	C455.125977,321.113556 453.441620,321.394043 452.122894,321.327606 
	C451.083344,321.275208 450.087402,320.356659 448.832123,319.193878 
	C442.528107,310.129913 436.224060,301.065979 429.826660,291.323761 
	C426.045380,285.287292 422.591736,279.010284 418.388184,273.283752 
	C414.400970,267.852020 410.162292,262.431458 402.807068,260.927124 
	C388.327606,257.965729 372.562805,265.186310 365.782349,278.321899 
	C363.445099,282.849670 363.276306,287.759277 366.235016,292.071045 
	C374.065033,303.481903 382.137329,314.726501 390.004852,326.757721 
	C392.560394,330.906647 395.337067,334.942535 397.547607,339.267792 
	C398.288666,340.717743 398.324188,343.663330 397.377533,344.584503 
	C395.815613,346.104431 393.321014,346.492157 391.452454,343.964661 
	C389.153076,340.854462 386.597992,337.933319 384.018311,334.451630 
	C384.018311,334.451630 383.786591,334.011261 383.701477,333.352356 
	C382.142975,331.414917 380.508850,329.533051 379.038269,327.531036 
	C369.529480,314.586151 360.079102,301.598328 350.562317,288.659363 
	C345.545319,281.838257 342.559723,280.768341 334.118805,282.756470 
	C320.303345,285.036530 310.097443,292.863739 302.555359,304.173035 
	C299.328949,309.011078 298.148499,315.276062 301.313416,320.328339 
	C306.914276,329.269287 313.582642,337.541565 320.015961,346.751984 
	C327.557037,356.219055 335.098083,365.686096 342.853302,375.704834 
	C343.255798,376.129730 343.658264,376.554626 344.118835,377.546356 
	C344.373322,377.815247 344.627808,378.084167 344.839874,378.709015 
	C344.839874,378.709015 345.048126,379.000732 344.990784,379.519043 
	C345.069672,379.673950 345.148529,379.828857 345.159149,380.649567 
	C345.193634,381.093170 345.228119,381.536774 344.935699,382.627075 
	C341.222900,388.428253 339.968506,388.733337 335.391663,383.666687 
	C325.602417,372.829865 316.049896,361.779144 306.115082,350.189026 
	C299.285309,342.040741 292.547180,333.813538 285.607056,325.760345 
	C270.313751,308.014465 254.996262,290.288116 239.528320,272.694794 
	C232.974213,265.240082 226.016861,258.139954 218.791168,250.306458 
	C209.972275,246.058472 201.646957,246.388763 193.366043,253.212723 
	C191.093582,255.414993 188.784012,257.580414 186.555115,259.825928 
	C177.091446,269.360138 176.651794,281.220673 185.356125,291.593781 
	C199.370651,308.295197 213.370117,325.009338 227.414139,341.685913 
	C237.904877,354.143158 248.455856,366.549713 259.170868,379.629364 
	C267.522369,389.677734 275.784668,399.802063 284.253784,409.750275 
	C290.964569,417.633057 297.929047,425.299835 304.634979,433.812469 
	C305.660339,435.217346 306.599854,436.695404 307.725403,438.014832 
	C313.808167,445.145508 319.937073,452.236847 326.050079,459.341766 
	C324.188263,460.131897 322.806915,460.041992 321.559662,459.585602 
	C311.479370,455.896790 301.451080,452.064880 291.353851,448.423798 
	C281.598572,444.906006 271.547821,442.895874 261.120514,443.090027 
	C248.587631,443.323395 231.296341,455.691467 234.266373,471.107208 
	C235.096512,475.415924 237.042297,479.960327 239.780426,483.340057 
	C243.440811,487.858124 247.748856,492.866058 252.882904,494.972534 
	C264.999481,499.943878 277.769562,503.322266 290.274475,507.347626 
	C291.216614,507.650848 292.143372,508.004211 293.091858,508.284943 
	C299.864044,510.289246 306.640076,512.280762 314.018066,514.746521 
	C322.346527,517.444458 330.675018,520.142395 339.603210,523.309021 
	C355.774536,528.397339 371.876129,533.723328 388.140167,538.495605 
	C400.213409,542.038208 412.415619,545.261719 424.732849,547.785706 
	C428.938141,548.647400 433.668182,546.948181 438.868774,546.265320 
	C440.457245,545.399536 442.252014,544.776550 443.601593,543.629700 
	C454.378296,534.471741 465.070740,525.214661 476.399689,515.671265 
	C486.325317,507.571228 496.307800,499.539551 506.160553,491.351837 
	C515.878418,483.276215 525.495239,475.078003 535.098938,466.866455 
	C542.000488,460.965363 548.765808,454.904846 555.670654,449.007629 
	C560.762329,444.658997 562.368103,439.148285 560.686462,432.920074 
	C558.701599,425.568604 556.290955,418.323181 553.826050,411.113403 
	C552.205383,406.372955 550.162598,401.776855 548.595154,396.426270 
	C547.402954,393.954529 546.210693,391.482788 545.021179,388.241547 
	C541.843323,379.301270 539.055359,370.197174 535.385620,361.463531 
	C531.112122,351.293121 526.070984,341.445068 521.355591,331.460602 
	C518.266541,324.919739 515.445679,318.232361 511.999023,311.885193 
	C507.399078,303.414124 502.407501,295.149292 497.399902,286.907837 
	C492.713501,279.194946 487.786713,271.628082 482.808258,263.341217 
	C472.830109,248.153976 455.842255,246.529037 442.359406,256.415894 
	C430.655487,264.585907 432.868835,277.782776 439.024811,286.909698 
z"/>
<path fill="#F68A1F" opacity="1.000000" stroke="none" 
	d="
M136.509445,269.074432 
	C135.470871,288.802429 141.397659,306.017517 154.791824,320.757568 
	C160.276520,326.793365 165.310089,333.240295 170.522461,339.522156 
	C189.552811,362.457123 208.572037,385.401337 227.988968,408.816589 
	C209.172348,419.678955 196.516586,434.990814 191.721252,456.947205 
	C191.349960,458.121429 191.245148,458.670013 191.140350,459.218628 
	C191.140335,459.218628 191.103058,459.052032 190.903870,459.257416 
	C190.230835,460.139465 189.639648,460.762238 189.300247,461.500702 
	C179.953552,481.836761 173.288284,502.995697 169.845825,525.138245 
	C160.162842,522.202209 150.209167,519.943787 140.847214,516.204102 
	C111.884987,504.635101 86.509293,487.452515 64.706505,465.151520 
	C44.722004,444.710419 29.133274,421.262939 18.109585,394.868866 
	C17.337704,393.020721 17.602432,390.237274 18.402857,388.311859 
	C27.151016,367.268524 38.817638,348.018677 53.678154,330.655365 
	C76.564766,303.914154 103.793785,283.112579 136.509445,269.074432 
z"/>
<path fill="#F68A1F" opacity="1.000000" stroke="none" 
	d="
M232.069061,532.963013 
	C271.781952,545.916077 311.494751,558.869324 351.207916,571.821655 
	C352.941132,572.386902 354.677277,572.943237 356.856018,574.046692 
	C366.563934,592.420715 377.374115,609.198547 390.999268,624.368774 
	C390.999725,625.090332 390.999878,625.502197 391.000000,625.914062 
	C379.353516,636.270020 368.334930,647.458557 355.932404,656.811951 
	C328.501343,677.499207 297.431519,690.585938 263.473816,695.779846 
	C248.439301,698.079346 233.042648,698.011169 217.330902,699.021118 
	C216.851425,699.024475 216.449661,698.984680 216.259888,698.918823 
	C212.157242,693.083679 208.159088,687.370178 204.345795,681.535828 
	C184.601776,651.327393 172.589188,618.387268 168.846573,582.393555 
	C166.911591,563.784119 166.939362,545.295166 170.303558,526.435242 
	C190.917831,530.965332 211.383331,532.941467 232.069061,532.963013 
z"/>
<path fill="#F36F23" opacity="1.000000" stroke="none" 
	d="
M231.833130,532.718628 
	C211.383331,532.941467 190.917831,530.965332 170.382782,526.034912 
	C169.982910,526.012329 169.912781,525.574707 169.879303,525.356445 
	C173.288284,502.995697 179.953552,481.836761 189.300247,461.500702 
	C189.639648,460.762238 190.230835,460.139465 190.987656,459.241089 
	C188.555725,492.374573 204.352707,515.566711 231.833130,532.718628 
z"/>
<path fill="#F68A1F" opacity="1.000000" stroke="none" 
	d="
M391.335571,625.998901 
	C390.999878,625.502197 390.999725,625.090332 391.335083,624.285400 
	C393.284332,622.502686 395.232635,621.357483 396.456451,619.682922 
	C403.407867,610.171021 410.186157,600.532654 417.023376,590.937317 
	C429.385498,592.208130 441.939148,592.872803 453.201996,586.918640 
	C461.929138,582.304871 470.132324,576.441101 477.859222,570.248108 
	C494.219055,557.136047 510.115479,543.445862 526.850952,530.130981 
	C530.436584,530.702881 533.370850,531.490356 536.310425,531.510559 
	C551.210815,531.612610 566.156128,532.201721 580.999634,531.261658 
	C592.037598,530.562622 602.944336,527.791504 613.909485,525.943359 
	C614.605530,536.539307 615.887451,547.134583 615.898071,557.731262 
	C615.948914,608.510071 600.333496,654.118958 569.806824,694.659546 
	C568.909851,695.850769 568.116882,697.120239 567.125305,698.657410 
	C526.515869,700.640625 488.421234,691.921875 452.714447,672.851929 
	C434.881256,663.327759 418.648285,651.565125 404.036041,637.572571 
	C399.972961,633.681824 395.795898,629.910095 391.335571,625.998901 
z"/>
<path fill="#F36F22" opacity="1.000000" stroke="none" 
	d="
M613.956116,525.716309 
	C602.944336,527.791504 592.037598,530.562622 580.999634,531.261658 
	C566.156128,532.201721 551.210815,531.612610 536.310425,531.510559 
	C533.370850,531.490356 530.436584,530.702881 527.168945,530.013550 
	C541.708313,517.203369 556.555420,504.621490 571.457336,492.104767 
	C580.504761,484.505432 589.944092,477.312012 596.571167,466.837402 
	C601.052612,479.391083 605.491272,492.096283 609.391174,504.964813 
	C611.307861,511.289215 612.226501,517.916077 613.833618,524.718384 
	C614.070557,525.030762 614.002747,525.489319 613.956116,525.716309 
z"/>
<path fill="#F36F22" opacity="1.000000" stroke="none" 
	d="
M577.891296,351.262299 
	C571.666687,338.068848 566.085693,324.184479 559.236084,310.957062 
	C549.242004,291.657532 538.336243,272.830139 527.702576,253.462418 
	C554.873047,248.896027 581.904968,250.696640 608.801941,256.399506 
	C612.765808,257.239960 613.404419,259.447601 612.780884,262.893402 
	C607.906799,289.828674 599.115601,315.309082 584.837402,338.784027 
	C582.431091,342.740204 580.251953,346.834503 577.891296,351.262299 
z"/>
<path fill="#F36F22" opacity="1.000000" stroke="none" 
	d="
M429.418457,214.244171 
	C426.606995,216.373383 423.541107,218.342941 420.332031,220.042007 
	C419.305573,220.585449 417.775269,220.830688 416.685974,220.506104 
	C390.990204,212.848969 368.353516,219.296036 347.417053,235.438751 
	C349.177277,229.508698 350.820831,223.218613 353.427795,217.357010 
	C362.046326,197.978973 373.375214,180.229828 386.839722,163.854111 
	C388.265076,162.120575 390.083344,160.710114 392.563934,158.344223 
	C399.785278,168.213959 406.966797,177.292770 413.313507,186.921814 
	C419.052399,195.628784 423.879456,204.936752 429.418457,214.244171 
z"/>
<path fill="#F36E22" opacity="1.000000" stroke="none" 
	d="
M482.965729,263.996948 
	C487.786713,271.628082 492.713501,279.194946 497.399902,286.907837 
	C502.407501,295.149292 507.399078,303.414124 511.999023,311.885193 
	C515.445679,318.232361 518.266541,324.919739 521.355591,331.460602 
	C526.070984,341.445068 531.112122,351.293121 535.385620,361.463531 
	C539.055359,370.197174 541.843323,379.301270 544.765259,388.782990 
	C544.286072,390.639008 543.437927,392.361633 543.973022,393.181061 
	C545.005554,394.762268 546.819092,395.833435 548.308838,397.116089 
	C550.162598,401.776855 552.205383,406.372955 553.826050,411.113403 
	C556.290955,418.323181 558.701599,425.568604 560.686462,432.920074 
	C562.368103,439.148285 560.762329,444.658997 555.670654,449.007629 
	C548.765808,454.904846 542.000488,460.965363 535.098938,466.866455 
	C525.495239,475.078003 515.878418,483.276215 506.160553,491.351837 
	C496.307800,499.539551 486.325317,507.571228 475.727539,515.799927 
	C466.039459,511.631531 457.023529,507.334534 448.005249,502.582001 
	C448.051300,499.963379 447.974670,497.789032 448.167816,495.638947 
	C449.749878,478.026001 449.574951,460.459045 446.954834,442.710510 
	C446.971100,442.474152 447.001221,442.001221 447.402527,441.994141 
	C448.628448,441.887329 449.482697,441.893738 450.273346,441.672546 
	C475.671234,434.568939 499.217072,423.473114 520.807739,408.366577 
	C527.807800,403.468781 534.290649,397.831757 541.718079,391.974609 
	C513.755859,366.700928 482.289093,350.329041 446.991943,341.007874 
	C447.000000,341.000000 446.983856,341.013519 446.997803,340.588654 
	C447.698547,333.383453 448.385345,326.603119 449.072113,319.822784 
	C450.087402,320.356659 451.083344,321.275208 452.122894,321.327606 
	C453.441620,321.394043 455.125977,321.113556 456.012756,320.291992 
	C456.558105,319.786713 456.275360,317.784607 455.729065,316.811188 
	C453.638824,313.086517 451.291138,309.506256 448.997528,305.053986 
	C448.629791,296.166626 448.304108,288.097351 448.287170,279.871399 
	C460.052551,274.475433 471.509125,269.236206 482.965729,263.996948 
z"/>
<path fill="#F36E22" opacity="1.000000" stroke="none" 
	d="
M313.414856,514.276306 
	C306.640076,512.280762 299.864044,510.289246 293.091858,508.284943 
	C292.143372,508.004211 291.216614,507.650848 290.274475,507.347626 
	C277.769562,503.322266 264.999481,499.943878 252.882904,494.972534 
	C247.748856,492.866058 243.440811,487.858124 239.780426,483.340057 
	C237.042297,479.960327 235.096512,475.415924 234.266373,471.107208 
	C231.296341,455.691467 248.587631,443.323395 261.120514,443.090027 
	C271.547821,442.895874 281.598572,444.906006 291.353851,448.423798 
	C301.451080,452.064880 311.479370,455.896790 321.559662,459.585602 
	C322.806915,460.041992 324.188263,460.131897 326.050079,459.341766 
	C319.937073,452.236847 313.808167,445.145508 307.725403,438.014832 
	C306.599854,436.695404 305.660339,435.217346 305.118347,433.426788 
	C313.988495,435.677765 322.287659,438.660614 330.796539,440.815247 
	C335.550842,442.019135 336.495544,444.438080 335.826019,448.686035 
	C333.249664,465.032440 333.715210,481.441010 335.123260,497.847809 
	C335.252167,499.349854 336.028442,500.796387 336.754730,503.044464 
	C342.733643,499.145142 348.355591,496.162994 353.172821,492.202179 
	C365.211212,482.303802 376.990631,472.080505 388.628418,461.711975 
	C391.485992,459.166046 393.233032,459.173584 395.481293,461.986755 
	C397.343231,464.316498 399.169647,466.735809 401.362213,468.730255 
	C415.513580,481.602905 430.214661,493.765106 447.044464,503.495880 
	C446.826630,506.056824 446.844330,508.232697 446.384155,510.302368 
	C443.704407,522.355042 440.912445,534.382812 438.158386,546.419067 
	C433.668182,546.948181 428.938141,548.647400 424.732849,547.785706 
	C412.415619,545.261719 400.213409,542.038208 388.140167,538.495605 
	C371.876129,533.723328 355.774536,528.397339 339.297363,522.671021 
	C337.860870,516.153503 336.730194,510.273987 335.537170,504.070099 
	C327.522095,507.767883 320.468475,511.022064 313.414856,514.276306 
z"/>
<path fill="#F15822" opacity="1.000000" stroke="none" 
	d="
M447.059235,503.061768 
	C430.214661,493.765106 415.513580,481.602905 401.362213,468.730255 
	C399.169647,466.735809 397.343231,464.316498 395.481293,461.986755 
	C393.233032,459.173584 391.485992,459.166046 388.628418,461.711975 
	C376.990631,472.080505 365.211212,482.303802 353.172821,492.202179 
	C348.355591,496.162994 342.733643,499.145142 336.754730,503.044464 
	C336.028442,500.796387 335.252167,499.349854 335.123260,497.847809 
	C333.715210,481.441010 333.249664,465.032440 335.826019,448.686035 
	C336.495544,444.438080 335.550842,442.019135 330.796539,440.815247 
	C322.287659,438.660614 313.988495,435.677765 305.191284,433.051819 
	C297.929047,425.299835 290.964569,417.633057 284.253784,409.750275 
	C275.784668,399.802063 267.522369,389.677734 259.185150,378.988922 
	C261.067291,376.728668 262.722961,374.727417 264.837463,373.550873 
	C278.636292,365.872894 292.534637,358.373688 306.400421,350.816040 
	C316.049896,361.779144 325.602417,372.829865 335.391663,383.666687 
	C339.968506,388.733337 341.222900,388.428253 345.396362,382.441833 
	C347.239655,384.837341 348.622223,387.418060 350.003662,390.398926 
	C350.002380,391.865997 350.002258,392.933014 349.754883,394.251587 
	C345.357178,409.172333 341.145996,423.824799 337.105347,438.524139 
	C336.254395,441.619934 338.227844,443.139465 341.125732,443.520386 
	C355.084381,445.355194 369.046051,447.167175 383.292480,449.161011 
	C386.151794,452.045166 388.725281,454.755585 392.669952,458.910065 
	C393.866791,456.898560 394.843567,455.327759 395.751160,453.717987 
	C398.092682,449.564941 401.704926,448.762817 406.235229,448.854248 
	C410.823486,448.946808 415.459167,448.150787 420.027802,447.444458 
	C429.015015,446.054993 437.970154,444.458008 446.938568,442.946869 
	C449.574951,460.459045 449.749878,478.026001 448.167816,495.638947 
	C447.974670,497.789032 448.051300,499.963379 447.768005,502.584473 
	C447.533112,503.042450 447.059235,503.061768 447.059235,503.061768 
z"/>
<path fill="#EE4023" opacity="1.000000" stroke="none" 
	d="
M446.954834,442.710510 
	C437.970154,444.458008 429.015015,446.054993 420.027802,447.444458 
	C415.459167,448.150787 410.823486,448.946808 406.235229,448.854248 
	C401.704926,448.762817 398.092682,449.564941 395.751160,453.717987 
	C394.843567,455.327759 393.866791,456.898560 392.669952,458.910065 
	C388.725281,454.755585 386.151794,452.045166 383.216858,448.825623 
	C373.496155,433.063812 364.119690,417.821564 354.793152,402.548859 
	C353.091858,399.762939 351.593933,396.852783 350.002136,394.000000 
	C350.002258,392.933014 350.002380,391.865997 350.243469,390.156342 
	C355.856628,379.276855 360.739410,368.741241 366.750610,358.894470 
	C371.878052,350.495331 378.302673,342.888062 384.153442,334.930481 
	C386.597992,337.933319 389.153076,340.854462 391.452454,343.964661 
	C393.321014,346.492157 395.815613,346.104431 397.377533,344.584503 
	C398.324188,343.663330 398.288666,340.717743 397.547607,339.267792 
	C395.337067,334.942535 392.560394,330.906647 390.279144,326.385437 
	C390.553436,326.013123 390.993591,325.988007 391.329773,326.066040 
	C392.830933,327.036316 394.394836,327.692993 395.086731,328.864594 
	C397.226685,332.488373 400.232574,333.876923 404.374054,334.446808 
	C418.608978,336.405518 432.785248,338.790802 446.983856,341.013519 
	C446.983856,341.013519 447.000000,341.000000 446.964844,341.409515 
	C442.580566,357.632111 438.215332,373.440826 433.914062,389.266937 
	C433.583649,390.482635 433.353363,391.915283 433.668396,393.088104 
	C438.052185,409.408722 442.539307,425.701599 447.001221,442.001221 
	C447.001221,442.001221 446.971100,442.474152 446.954834,442.710510 
z"/>
<path fill="#F36F22" opacity="1.000000" stroke="none" 
	d="
M306.257751,350.502533 
	C292.534637,358.373688 278.636292,365.872894 264.837463,373.550873 
	C262.722961,374.727417 261.067291,376.728668 259.089722,378.663635 
	C248.455856,366.549713 237.904877,354.143158 227.414139,341.685913 
	C213.370117,325.009338 199.370651,308.295197 185.356125,291.593781 
	C176.651794,281.220673 177.091446,269.360138 186.555115,259.825928 
	C188.784012,257.580414 191.093582,255.414993 194.098114,253.077789 
	C202.967712,252.254791 211.105240,251.566727 219.242798,250.878662 
	C226.016861,258.139954 232.974213,265.240082 239.528320,272.694794 
	C254.996262,290.288116 270.313751,308.014465 285.607056,325.760345 
	C292.547180,333.813538 299.285309,342.040741 306.257751,350.502533 
z"/>
<path fill="#F36F23" opacity="1.000000" stroke="none" 
	d="
M390.993591,325.988007 
	C390.993591,325.988007 390.553436,326.013123 390.333313,326.025208 
	C382.137329,314.726501 374.065033,303.481903 366.235016,292.071045 
	C363.276306,287.759277 363.445099,282.849670 365.782349,278.321899 
	C372.562805,265.186310 388.327606,257.965729 402.807068,260.927124 
	C410.162292,262.431458 414.400970,267.852020 418.388184,273.283752 
	C422.591736,279.010284 426.045380,285.287292 429.539246,291.740265 
	C414.701111,301.400604 402.527069,313.332123 390.993591,325.988007 
z"/>
<path fill="#F15A24" opacity="1.000000" stroke="none" 
	d="
M334.938385,282.799744 
	C342.559723,280.768341 345.545319,281.838257 350.562317,288.659363 
	C360.079102,301.598328 369.529480,314.586151 379.038269,327.531036 
	C380.508850,329.533051 382.142975,331.414917 383.325867,333.684082 
	C369.479706,335.888885 356.013000,337.790283 342.536469,339.619476 
	C337.927887,340.244995 336.242279,342.420990 337.473145,347.147827 
	C339.399506,354.545319 341.019409,362.026520 342.589233,369.510040 
	C342.967896,371.315155 342.641388,373.268158 342.639160,375.153168 
	C335.098083,365.686096 327.557037,356.219055 320.258453,346.267395 
	C324.142761,344.633942 327.738739,343.299072 331.438965,342.387146 
	C335.328064,341.428680 336.244415,339.162384 335.887024,335.411591 
	C335.070374,326.841339 334.237732,318.243378 334.100464,309.645691 
	C333.957703,300.703766 334.625183,291.748932 334.938385,282.799744 
z"/>
<path fill="#F15823" opacity="1.000000" stroke="none" 
	d="
M391.329773,326.066040 
	C402.527069,313.332123 414.701111,301.400604 429.585938,292.079407 
	C436.224060,301.065979 442.528107,310.129913 448.952118,319.508331 
	C448.385345,326.603119 447.698547,333.383453 446.997803,340.588654 
	C432.785248,338.790802 418.608978,336.405518 404.374054,334.446808 
	C400.232574,333.876923 397.226685,332.488373 395.086731,328.864594 
	C394.394836,327.692993 392.830933,327.036316 391.329773,326.066040 
z"/>
<path fill="#F36F23" opacity="1.000000" stroke="none" 
	d="
M334.528595,282.778107 
	C334.625183,291.748932 333.957703,300.703766 334.100464,309.645691 
	C334.237732,318.243378 335.070374,326.841339 335.887024,335.411591 
	C336.244415,339.162384 335.328064,341.428680 331.438965,342.387146 
	C327.738739,343.299072 324.142761,344.633942 320.152588,345.938263 
	C313.582642,337.541565 306.914276,329.269287 301.313416,320.328339 
	C298.148499,315.276062 299.328949,309.011078 302.555359,304.173035 
	C310.097443,292.863739 320.303345,285.036530 334.528595,282.778107 
z"/>
<path fill="#F36F23" opacity="1.000000" stroke="none" 
	d="
M416.719238,590.711487 
	C410.186157,600.532654 403.407867,610.171021 396.456451,619.682922 
	C395.232635,621.357483 393.284332,622.502686 391.334747,623.975708 
	C377.374115,609.198547 366.563934,592.420715 357.152924,574.272156 
	C371.516571,578.076050 386.019470,582.225037 400.541962,586.304321 
	C405.808960,587.783813 411.122681,589.096741 416.719238,590.711487 
z"/>
<path fill="#EF4923" opacity="1.000000" stroke="none" 
	d="
M342.746216,375.429016 
	C342.641388,373.268158 342.967896,371.315155 342.589233,369.510040 
	C341.019409,362.026520 339.399506,354.545319 337.473145,347.147827 
	C336.242279,342.420990 337.927887,340.244995 342.536469,339.619476 
	C356.013000,337.790283 369.479706,335.888885 383.368408,334.013519 
	C383.786591,334.011261 384.018311,334.451630 384.085876,334.691040 
	C378.302673,342.888062 371.878052,350.495331 366.750610,358.894470 
	C360.739410,368.741241 355.856628,379.276855 350.244629,389.756226 
	C348.622223,387.418060 347.239655,384.837341 345.559845,382.118469 
	C345.228119,381.536774 345.193634,381.093170 345.265076,380.191223 
	C345.425812,379.422852 345.318207,379.178802 345.048126,379.000732 
	C345.048126,379.000732 344.839874,378.709015 344.774780,378.274475 
	C344.493378,377.553101 344.277069,377.266296 344.060760,376.979523 
	C343.658264,376.554626 343.255798,376.129730 342.746216,375.429016 
z"/>
<path fill="#F68B22" opacity="1.000000" stroke="none" 
	d="
M482.886993,263.669067 
	C471.509125,269.236206 460.052551,274.475433 448.045593,279.854797 
	C447.495239,279.994873 447.011444,279.963745 447.012360,279.525543 
	C445.669464,271.467316 444.325653,263.847290 442.981842,256.227264 
	C455.842255,246.529037 472.830109,248.153976 482.886993,263.669067 
z"/>
<path fill="#F68B21" opacity="1.000000" stroke="none" 
	d="
M447.044464,503.495880 
	C447.059235,503.061768 447.533112,503.042450 447.770386,503.039978 
	C457.023529,507.334534 466.039459,511.631531 475.422180,515.958252 
	C465.070740,525.214661 454.378296,534.471741 443.601593,543.629700 
	C442.252014,544.776550 440.457245,545.399536 438.513580,546.342163 
	C440.912445,534.382812 443.704407,522.355042 446.384155,510.302368 
	C446.844330,508.232697 446.826630,506.056824 447.044464,503.495880 
z"/>
<path fill="#F37227" opacity="1.000000" stroke="none" 
	d="
M442.670624,256.321594 
	C444.325653,263.847290 445.669464,271.467316 446.776855,279.769623 
	C443.984344,282.374786 441.428192,284.297668 438.872070,286.220551 
	C432.868835,277.782776 430.655487,264.585907 442.670624,256.321594 
z"/>
<path fill="#F68B22" opacity="1.000000" stroke="none" 
	d="
M313.716461,514.511414 
	C320.468475,511.022064 327.522095,507.767883 335.537170,504.070099 
	C336.730194,510.273987 337.860870,516.153503 338.997498,522.436646 
	C330.675018,520.142395 322.346527,517.444458 313.716461,514.511414 
z"/>
<path fill="#F15D27" opacity="1.000000" stroke="none" 
	d="
M438.948425,286.565125 
	C441.428192,284.297668 443.984344,282.374786 446.775940,280.207825 
	C447.011444,279.963745 447.495239,279.994873 447.736816,280.011475 
	C448.304108,288.097351 448.629791,296.166626 448.939606,304.715332 
	C445.624084,299.099792 442.324463,293.004730 438.948425,286.565125 
z"/>
<path fill="#F6902C" opacity="1.000000" stroke="none" 
	d="
M219.016968,250.592560 
	C211.105240,251.566727 202.967712,252.254791 194.413376,252.961182 
	C201.646957,246.388763 209.972275,246.058472 219.016968,250.592560 
z"/>
<path fill="#F69538" opacity="1.000000" stroke="none" 
	d="
M548.452026,396.771179 
	C546.819092,395.833435 545.005554,394.762268 543.973022,393.181061 
	C543.437927,392.361633 544.286072,390.639008 544.763916,389.167725 
	C546.210693,391.482788 547.402954,393.954529 548.452026,396.771179 
z"/>
<path fill="#F36F23" opacity="1.000000" stroke="none" 
	d="
M191.350800,459.012268 
	C191.245148,458.670013 191.349960,458.121429 191.589355,457.327942 
	C191.669693,457.657349 191.615463,458.231598 191.350800,459.012268 
z"/>
<path fill="#F15822" opacity="1.000000" stroke="none" 
	d="
M345.019470,379.259888 
	C345.318207,379.178802 345.425812,379.422852 345.299194,379.858337 
	C345.148529,379.828857 345.069672,379.673950 345.019470,379.259888 
z"/>
<path fill="#F15A24" opacity="1.000000" stroke="none" 
	d="
M344.089783,377.262939 
	C344.277069,377.266296 344.493378,377.553101 344.795990,378.096497 
	C344.627808,378.084167 344.373322,377.815247 344.089783,377.262939 
z"/>
<path fill="#F15822" opacity="1.000000" stroke="none" 
	d="
M447.402527,441.994141 
	C442.539307,425.701599 438.052185,409.408722 433.668396,393.088104 
	C433.353363,391.915283 433.583649,390.482635 433.914062,389.266937 
	C438.215332,373.440826 442.580566,357.632111 446.956757,341.417358 
	C482.289093,350.329041 513.755859,366.700928 541.718079,391.974609 
	C534.290649,397.831757 527.807800,403.468781 520.807739,408.366577 
	C499.217072,423.473114 475.671234,434.568939 450.273346,441.672546 
	C449.482697,441.893738 448.628448,441.887329 447.402527,441.994141 
z"/>
<path fill="#EF4923" opacity="1.000000" stroke="none" 
	d="
M349.754883,394.251587 
	C351.593933,396.852783 353.091858,399.762939 354.793152,402.548859 
	C364.119690,417.821564 373.496155,433.063812 382.931061,448.651886 
	C369.046051,447.167175 355.084381,445.355194 341.125732,443.520386 
	C338.227844,443.139465 336.254395,441.619934 337.105347,438.524139 
	C341.145996,423.824799 345.357178,409.172333 349.754883,394.251587 
z"/>
</svg>