<?xml version="1.0" standalone="no"?>
<!DOCTYPE svg PUBLIC "-//W3C//DTD SVG 20010904//EN"
 "http://www.w3.org/TR/2001/REC-SVG-20010904/DTD/svg10.dtd">
<svg version="1.0" xmlns="http://www.w3.org/2000/svg"
 width="1379.000000pt" height="1688.000000pt" viewBox="0 0 1379.000000 1688.000000"
 preserveAspectRatio="xMidYMid meet">

<g transform="translate(0.000000,1688.000000) scale(0.100000,-0.100000)"
fill="#000000" stroke="none">
<path fill="#962444" d="M5120 16005 c-530 -469 -966 -857 -967 -862 -2 -6 313 -172 699 -370
1482 -761 2593 -1330 3108 -1593 699 -356 782 -406 942 -558 154 -147 223
-286 222 -447 -1 -166 -75 -313 -246 -491 -264 -274 -587 -459 -931 -533 -344
-75 -739 -29 -1077 125 -79 36 -2056 1029 -2965 1489 -220 111 -669 338 -998
504 l-598 302 -23 -18 c-83 -66 -1976 -1678 -1976 -1684 0 -3 96 -55 213 -114
116 -59 280 -143 362 -185 83 -43 413 -212 735 -375 871 -443 2237 -1142 2817
-1441 319 -165 571 -288 671 -328 451 -181 947 -297 1492 -347 173 -16 645
-16 820 0 641 59 1220 221 1775 498 462 231 884 531 1510 1072 244 211 700
668 849 851 225 278 388 553 453 765 25 83 27 103 27 250 -2 600 -201 1133
-531 1421 -293 256 -830 588 -1648 1019 -326 172 -3716 1885 -3765 1902 -3 1
-439 -382 -970 -852z"/>
<path fill="#FBBD16" d="M10 7455 l0 -4094 862 -435 863 -435 5 2447 c5 2399 5 2445 23 2352
10 -52 222 -1242 471 -2644 l452 -2549 769 -384 c450 -226 771 -380 774 -374
4 5 227 996 496 2201 l490 2191 5 -2412 5 -2412 860 -423 c473 -233 863 -423
868 -424 4 0 7 1840 7 4088 l0 4089 -1313 621 c-722 342 -1318 622 -1323 622
-6 0 -197 -871 -425 -1935 -246 -1152 -417 -1928 -421 -1917 -4 9 -194 1061
-422 2336 -228 1276 -419 2323 -423 2327 -7 6 -2120 1020 -2510 1205 l-113 53
0 -4094z"/>
<path fill="#452E7F" d="M8568 8948 l-1368 -711 1 -2336 c1 -1285 5 -3133 8 -4108 l6 -1772
3280 1724 3280 1724 -3 1113 c-2 612 -5 1115 -7 1117 -2 2 -857 -438 -1901
-978 -1043 -539 -1900 -981 -1905 -981 -5 0 -9 1201 -9 2960 0 1628 -3 2960
-7 2959 -5 0 -623 -320 -1375 -711z"/>
<path fill="#6D6E71" d="M13046 7339 c-130 -31 -277 -149 -333 -269 -72 -152 -71 -298 3 -449
183 -372 741 -375 926 -4 118 237 45 511 -176 655 -87 56 -168 78 -285 77 -53
-1 -114 -5 -135 -10z m298 -117 c246 -115 309 -460 120 -662 -157 -168 -440
-157 -588 23 -46 56 -71 115 -87 200 -38 205 97 416 298 467 71 18 186 5 257
-28z"/>
<path fill="#6D6E71" d="M13013 7093 l-23 -4 0 -250 0 -249 55 0 55 0 0 100 0 100 45 0 c74 0
102 -21 120 -88 33 -117 25 -107 92 -110 l61 -3 -20 77 c-24 94 -41 129 -73
150 -27 18 -33 34 -12 34 7 0 28 12 46 28 63 53 49 161 -27 199 -30 14 -63 18
-167 20 -71 0 -140 -1 -152 -4z m236 -90 c29 -22 36 -42 27 -79 -9 -33 -55
-54 -121 -54 l-55 0 0 74 c0 62 3 75 18 80 33 9 105 -2 131 -21z"/>
</g>
</svg>
