<svg xmlns="http://www.w3.org/2000/svg" version="1.0" width="500.000000pt" height="500.000000pt" viewBox="0 0 500.000000 500.000000" preserveAspectRatio="xMidYMid meet">

<g transform="translate(0.000000,500.000000) scale(0.100000,-0.100000)" fill="#CC3333" stroke="none">
<path d="M1565 3800 l-940 -940 943 -942 942 -943 357 358 358 357 -718 718 c-394 394 -717 720 -717 724 0 10 701 708 710 708 9 0 720 -709 720 -718 0 -4 -118 -125 -262 -269 l-263 -263 358 -358 357 -357 492 493 493 492 -940 940 c-517 517 -942 940 -945 940 -3 0 -428 -423 -945 -940z"/>
<path d="M845 2180 l-130 -130 898 -898 897 -897 898 898 897 897 -133 132 -133 132 -764 -764 -765 -765 -763 763 c-419 419 -764 762 -767 762 -3 0 -64 -59 -135 -130z"/>
</g>
</svg>